# xmcd CD database file
# Copyright (C) 1993-1998 Ti Kan
#
# Track frame offsets:
#	150
#	19488
#	43413
#	58978
#	83513
#	110488
#	129838
#	148588
#	181588
#
# Disc length: 2902 seconds
#
# Revision: 1
# Processed by: cddbd v1.4b41PL1 Copyright (c) Steve Scherf et al.
# Submitted via: CDValet v3.31 - Copyright (c) 1997 Greg Leichner
#
DISCID=780b5409
DTITLE=B.B. King - All Over Again
DYEAR=1900
DGENRE=
TTITLE0=Let The Good Times Roll
TTITLE1=Don't Answer The Door
TTITLE2=Paying The Cost To Be The Boss
TTITLE3=Going Out Of My Mind
TTITLE4=Guess Who
TTITLE5=Lucille
TTITLE6=Caldonia
TTITLE7=All  Over Again
TTITLE8=The Thrill Is Gone
EXTD=
EXTT0=
EXTT1=
EXTT2=
EXTT3=
EXTT4=
EXTT5=
EXTT6=
EXTT7=
EXTT8=
PLAYORDER=
